<?xml version="1.0" standalone="no"?>
<!DOCTYPE svg PUBLIC "-//W3C//DTD SVG 20010904//EN"
 "http://www.w3.org/TR/2001/REC-SVG-20010904/DTD/svg10.dtd">
<svg version="1.0" xmlns="http://www.w3.org/2000/svg"
 width="391.000000pt" height="362.000000pt" viewBox="0 0 391.000000 362.000000"
 preserveAspectRatio="xMidYMid meet">

<g transform="translate(0.000000,362.000000) scale(0.100000,-0.100000)"
fill="#000000" stroke="none">
<path d="M2136 3581 c-26 -11 -57 -28 -68 -38 -31 -28 -68 -116 -68 -162 l0
-43 -46 41 c-92 81 -131 101 -196 101 -66 0 -89 -9 -136 -53 -45 -43 -72 -122
-79 -231 l-6 -92 -49 48 c-27 26 -77 63 -112 83 -83 46 -136 48 -195 4 -62
-44 -82 -98 -89 -231 -3 -59 -7 -108 -10 -108 -2 0 -20 14 -40 31 -43 38 -113
69 -156 69 -18 0 -52 -12 -78 -29 -36 -23 -49 -39 -62 -77 -18 -53 -21 -112
-7 -158 5 -17 14 -49 20 -71 6 -22 13 -51 17 -63 5 -22 4 -23 -16 -12 -14 8
-53 10 -104 8 -69 -3 -88 -8 -127 -33 -26 -17 -60 -50 -75 -75 -27 -42 -29
-52 -29 -145 1 -108 17 -158 72 -216 18 -20 23 -32 17 -53 -5 -21 -10 -25 -23
-20 -9 4 -59 9 -111 11 -91 3 -97 2 -142 -27 -63 -40 -103 -114 -94 -177 7
-54 29 -97 74 -148 l36 -40 -41 -7 c-49 -8 -75 -20 -125 -61 -51 -41 -68 -82
-68 -162 0 -85 40 -172 112 -246 46 -46 154 -109 189 -109 8 0 0 -11 -18 -25
-36 -29 -114 -144 -131 -194 -15 -43 -14 -136 1 -177 19 -49 62 -92 124 -125
55 -30 62 -31 151 -26 80 4 101 9 153 36 34 18 63 30 66 27 2 -2 -2 -17 -10
-33 -8 -15 -19 -55 -26 -89 -24 -125 20 -212 134 -266 71 -33 154 -37 230 -11
66 22 216 110 262 153 21 20 51 44 66 54 l29 18 -7 -109 c-3 -59 -2 -129 3
-154 28 -142 204 -214 341 -141 64 34 146 114 186 182 17 27 33 50 37 50 4 0
10 -10 14 -22 10 -36 70 -104 101 -116 42 -17 177 -42 222 -42 44 0 105 12
190 38 80 24 167 80 208 134 l36 47 17 -22 c9 -12 19 -29 22 -38 4 -9 34 -35
68 -58 56 -37 69 -41 122 -41 69 0 147 20 200 53 109 65 198 197 198 291 0 40
3 47 16 42 39 -15 165 -28 230 -24 104 7 171 52 202 137 33 89 -17 264 -109
382 l-28 36 52 12 c78 18 130 54 186 128 l51 68 0 92 c0 70 -5 105 -22 150
-21 57 -83 147 -129 190 -44 40 -143 92 -196 104 l-53 12 72 35 c55 27 94 57
163 126 139 138 170 229 103 297 -99 98 -307 174 -427 155 l-35 -5 40 32 c113
91 154 159 154 254 0 77 -42 176 -90 211 -59 44 -181 38 -312 -15 -32 -13 -60
-23 -63 -23 -3 0 15 30 38 68 50 77 87 178 87 236 0 50 -46 150 -86 188 -83
77 -243 75 -351 -5 -57 -42 -119 -106 -162 -166 l-31 -44 0 39 c-1 120 -129
307 -251 370 -72 36 -156 42 -223 15z m199 -40 c75 -35 162 -128 208 -220 27
-54 32 -77 35 -155 5 -112 -7 -137 -54 -114 -55 29 -139 42 -254 43 l-115 0
-29 59 c-15 33 -43 81 -62 108 -29 40 -34 57 -34 102 0 61 37 145 75 170 65
43 150 45 230 7z m-489 -119 c86 -58 154 -125 154 -152 0 -37 47 -126 88 -167
l35 -36 -34 6 c-19 2 -63 10 -99 17 -78 14 -251 7 -330 -15 -98 -26 -94 -31
-88 93 10 195 66 281 183 282 38 0 60 -7 91 -28z m1225 -37 c24 -9 54 -28 67
-43 36 -42 72 -123 72 -162 0 -105 -122 -308 -233 -388 l-43 -30 -49 55 c-48
55 -198 173 -219 173 -6 0 -24 10 -40 23 l-28 23 18 53 c40 112 188 266 284
296 60 18 118 18 171 0z m-1706 -181 c33 -20 73 -47 89 -61 27 -22 80 -93 74
-97 -2 -2 -34 -13 -73 -25 -38 -12 -126 -51 -194 -87 -68 -35 -128 -61 -134
-57 -6 3 -8 48 -5 118 6 130 28 190 81 224 48 31 93 27 162 -15z m725 -48 c0
-12 -14 5 -31 39 -8 16 -6 15 10 -4 12 -13 21 -28 21 -35z m-67 -101 c14 -6
15 -10 6 -21 -18 -22 -4 -27 36 -14 31 10 39 10 55 -5 12 -11 26 -14 39 -10
24 7 26 16 9 33 -21 21 2 27 105 27 119 -1 235 -26 275 -60 2 -2 -5 -35 -14
-74 -10 -39 -14 -74 -11 -77 16 -17 36 11 52 74 l19 71 24 -20 c14 -10 30 -19
37 -19 6 0 29 -12 50 -27 52 -38 195 -174 195 -186 0 -6 -11 -25 -26 -44 -38
-50 -12 -73 39 -33 14 11 29 20 35 20 5 0 26 -25 48 -55 21 -31 54 -74 72 -96
17 -23 32 -45 32 -50 0 -5 20 -40 45 -77 27 -40 43 -75 40 -84 -4 -9 3 -21 19
-31 13 -9 29 -31 35 -50 6 -18 29 -67 50 -108 65 -129 113 -298 91 -324 -8
-10 -8 -15 3 -22 44 -26 50 -540 6 -587 -5 -6 -9 -28 -9 -50 0 -23 -8 -55 -19
-71 -10 -17 -24 -48 -31 -70 -16 -48 -88 -161 -124 -194 -23 -21 -29 -23 -52
-12 -52 23 -87 -14 -65 -72 10 -25 7 -30 -52 -77 -34 -27 -77 -57 -97 -66 -19
-9 -54 -30 -77 -46 -23 -15 -63 -37 -88 -48 -42 -18 -45 -18 -45 -2 0 10 -6
27 -14 38 -20 26 -36 9 -43 -45 -5 -38 -8 -41 -42 -47 -20 -3 -50 -10 -67 -15
-68 -21 -278 -39 -451 -39 -172 0 -183 1 -183 19 0 21 -23 45 -33 34 -4 -3 -7
-17 -7 -30 0 -21 -4 -23 -42 -22 -57 0 -165 13 -327 38 -95 14 -137 25 -145
37 -10 13 -17 14 -34 5 -16 -9 -43 -7 -119 8 -252 50 -471 177 -663 386 -64
69 -135 195 -115 202 42 15 42 43 0 43 -21 0 -24 6 -32 57 -13 93 -9 396 5
401 9 3 10 15 6 39 -9 48 37 254 79 356 l20 48 43 -7 c53 -8 55 1 19 62 l-25
43 24 63 c39 104 127 267 176 325 l31 38 28 -32 c15 -18 31 -33 34 -33 14 0 7
36 -13 68 l-21 34 26 34 c14 19 29 34 33 34 5 0 26 17 49 38 61 56 114 97 151
116 30 16 32 16 32 -2 0 -19 18 -42 33 -42 4 0 5 20 2 44 l-7 44 132 67 c161
81 266 119 274 99 8 -20 26 -17 26 4 0 17 50 31 190 56 35 7 241 -1 263 -9z
m-1078 -101 c45 -18 135 -92 135 -109 0 -7 -24 -28 -52 -48 -29 -19 -91 -69
-138 -110 -84 -75 -85 -75 -92 -49 -3 15 -14 54 -23 87 -28 101 -9 180 54 222
40 27 65 29 116 7z m2531 -64 c64 -60 93 -198 57 -271 -26 -54 -131 -150 -227
-208 -48 -29 -89 -51 -90 -49 -20 25 -88 132 -93 145 -6 17 -37 61 -120 173
l-34 45 53 51 c83 79 255 145 365 141 50 -2 68 -8 89 -27z m-2727 -329 c11 -7
7 -18 -23 -54 -20 -24 -36 -47 -36 -51 0 -4 -18 -37 -40 -73 -21 -36 -56 -106
-76 -154 -36 -87 -37 -89 -57 -72 -44 40 -61 93 -61 188 -1 77 3 95 22 127 20
32 64 67 112 90 22 10 143 9 159 -1z m2883 -196 c74 -27 128 -58 182 -106 66
-57 45 -121 -82 -251 -97 -99 -123 -118 -214 -154 -85 -33 -96 -32 -104 14
-16 98 -80 262 -165 424 -14 27 -12 31 26 57 81 55 228 61 357 16z m-3072
-316 c0 -5 -4 -9 -10 -9 -5 0 -10 7 -10 16 0 8 5 12 10 9 6 -3 10 -10 10 -16z
m-80 -25 c9 -9 8 -19 -2 -40 -18 -35 -62 -196 -79 -282 -7 -38 -16 -61 -23
-59 -6 2 -27 10 -46 17 -61 23 -158 158 -160 223 0 36 48 112 86 135 34 20 50
22 126 20 48 -2 92 -8 98 -14z m3050 -245 c171 -47 280 -146 335 -304 34 -98
30 -178 -12 -235 -70 -95 -127 -135 -207 -146 -42 -6 -47 -4 -113 48 -37 30
-76 58 -86 61 -16 6 -17 13 -10 54 11 64 10 390 -1 476 -10 78 -14 76 94 46z
m-3207 -175 l56 -36 -6 -132 c-3 -76 -1 -170 6 -224 6 -51 9 -97 6 -102 -6
-10 -92 18 -154 51 -52 28 -125 109 -159 176 -20 41 -23 59 -20 120 3 66 6 75
37 107 42 44 105 76 147 76 19 0 53 -14 87 -36z m3173 -472 c32 -28 35 -33 14
-27 -36 11 -90 48 -90 62 0 18 29 4 76 -35z m-47 -33 c16 -12 50 -24 75 -26
39 -5 52 -12 82 -46 78 -92 127 -209 128 -312 1 -64 -2 -75 -28 -109 -46 -61
-101 -80 -216 -73 -52 2 -114 10 -137 17 -39 12 -43 16 -53 61 -7 27 -29 76
-50 108 -34 53 -37 61 -23 72 22 19 119 170 128 199 8 28 57 130 62 130 2 0
17 -9 32 -21z m-3039 -44 c0 -21 66 -151 88 -173 9 -10 35 -38 58 -63 171
-186 430 -332 659 -370 l78 -13 -54 -49 c-64 -57 -191 -133 -257 -153 -105
-31 -210 -6 -280 69 -60 62 -61 148 -5 285 36 87 25 95 -67 43 -162 -92 -308
-80 -400 31 -33 40 -35 47 -35 118 0 60 5 85 25 124 29 57 104 144 134 156 33
14 56 11 56 -5z m2734 -306 c-18 -20 -18 -20 -26 1 -11 30 -1 42 23 29 20 -10
20 -11 3 -30z m102 -85 c43 -88 29 -97 -46 -26 l-65 62 25 24 c23 21 27 22 43
8 9 -8 29 -39 43 -68z m-8 -99 c40 -26 42 -30 42 -76 0 -70 -47 -155 -121
-219 -75 -66 -136 -92 -224 -98 -67 -4 -72 -3 -120 30 -27 19 -62 52 -78 74
-24 35 -27 45 -21 94 8 69 17 86 51 95 16 3 59 26 97 51 38 24 75 44 81 44 6
0 46 27 90 60 l78 59 41 -43 c23 -24 60 -56 84 -71z m-1668 -175 c63 -11 161
-22 218 -26 l102 -7 0 -28 c0 -70 -129 -232 -221 -277 -92 -44 -193 -23 -255
55 -39 48 -48 97 -39 217 l7 94 37 -5 c20 -3 88 -13 151 -23z m1102 0 c6 -40
-11 -76 -65 -136 -80 -88 -275 -155 -405 -139 -117 14 -164 32 -204 76 -48 52
-68 93 -68 136 l0 33 188 0 c165 0 418 20 443 36 7 4 56 15 100 23 4 1 9 -12
11 -29z"/>
<path d="M1685 2849 c-38 -5 -122 -13 -185 -17 -91 -5 -115 -10 -115 -22 0
-12 17 -14 90 -11 86 2 91 1 103 -21 20 -37 32 -88 42 -172 9 -74 22 -108 35
-94 11 10 -13 183 -33 241 l-19 56 51 6 c28 4 79 7 114 8 49 2 62 5 60 17 -4
18 -47 21 -143 9z"/>
<path d="M2027 2813 c-6 -16 -17 -31 -24 -36 -7 -4 -9 -14 -6 -23 3 -9 -2 -42
-12 -74 -15 -50 -16 -62 -5 -75 20 -24 78 -45 143 -52 81 -8 74 17 -9 33 -88
17 -117 31 -109 52 4 9 12 38 18 65 l12 47 50 0 c62 0 97 9 92 24 -2 7 -26 10
-65 7 -61 -3 -73 4 -51 26 12 12 4 33 -12 33 -5 0 -15 -12 -22 -27z"/>
<path d="M2087 2834 c-18 -18 16 -24 144 -24 108 0 140 3 137 13 -3 8 -43 13
-139 15 -74 1 -138 0 -142 -4z"/>
<path d="M1276 2752 c-10 -16 2 -56 42 -142 19 -41 40 -93 47 -115 7 -23 19
-41 29 -43 23 -5 14 29 -40 151 -24 54 -44 104 -44 111 0 21 -26 50 -34 38z"/>
<path d="M2584 2682 c-80 -27 -154 -100 -154 -154 0 -9 21 -28 48 -43 37 -22
61 -27 117 -29 53 -1 70 2 70 13 0 10 -18 14 -65 16 -77 3 -141 34 -133 64 15
57 156 131 224 117 25 -5 30 -3 27 12 -4 24 -69 26 -134 4z"/>
<path d="M1069 2508 c-18 -33 -24 -145 -9 -163 17 -20 158 -21 185 -2 26 20
11 39 -21 27 -14 -6 -53 -10 -86 -10 l-61 0 6 60 c3 34 10 67 17 75 12 14 6
35 -10 35 -5 0 -15 -10 -21 -22z"/>
<path d="M3048 2514 c-4 -3 -4 -12 -1 -20 15 -39 -39 -194 -67 -194 -5 0 -23
37 -40 83 -54 143 -86 162 -114 65 -45 -157 -58 -239 -41 -245 11 -3 38 85 54
172 6 28 14 60 18 73 l9 23 11 -23 c18 -39 40 -91 54 -132 8 -21 20 -41 26
-43 26 -10 61 8 80 39 22 38 47 143 41 178 -3 23 -19 36 -30 24z"/>
<path d="M794 2276 c-17 -8 -41 -26 -53 -42 -20 -25 -21 -35 -15 -94 3 -36 12
-76 19 -90 23 -44 71 -81 112 -87 33 -4 45 0 83 28 79 61 111 160 74 230 -30
58 -146 87 -220 55z m164 -43 c58 -43 54 -119 -10 -189 -46 -50 -71 -60 -110
-45 -36 14 -82 83 -73 110 3 12 13 21 22 21 22 0 10 25 -15 28 -42 6 -22 58
33 87 39 21 117 15 153 -12z"/>
<path d="M1729 2089 c-8 -16 -12 -90 -13 -249 -1 -124 -5 -233 -10 -244 -7
-14 -5 -17 9 -14 30 5 38 61 33 223 -3 83 -2 182 3 220 8 75 -1 102 -22 64z"/>
<path d="M3007 2104 c-18 -19 0 -165 22 -172 12 -4 13 7 7 61 -5 48 -3 66 6
70 9 3 7 11 -8 26 -11 12 -23 18 -27 15z"/>
<path d="M2186 2078 c-3 -7 -7 -125 -9 -263 -3 -137 -6 -256 -8 -264 -2 -8 3
-16 12 -18 14 -3 17 12 23 109 11 204 10 442 -3 446 -6 2 -13 -2 -15 -10z"/>
<path d="M618 1909 c-46 -24 -68 -64 -75 -135 -5 -42 -9 -54 -22 -52 -9 2 -16
-3 -16 -11 0 -22 244 -85 262 -68 10 10 -7 25 -35 31 -141 27 -137 25 -150 56
-24 53 4 127 57 154 58 31 71 -41 20 -118 -32 -47 -32 -69 -1 -50 55 34 81
155 42 194 -25 25 -35 24 -82 -1z"/>
<path d="M3134 1796 c-59 -27 -94 -67 -94 -107 0 -40 32 -59 103 -59 76 0 74
23 -3 30 -69 6 -85 28 -50 66 31 33 101 64 147 64 49 0 38 24 -13 27 -24 1
-59 -7 -90 -21z"/>
<path d="M3257 1593 c-4 -3 -2 -12 4 -20 9 -10 5 -14 -21 -20 -19 -3 -52 -25
-78 -49 -41 -39 -44 -46 -39 -79 13 -78 75 -118 156 -100 54 12 65 35 57 126
-4 48 -13 91 -24 107 -24 39 -41 49 -55 35z m37 -80 c4 -9 9 -42 13 -74 5 -54
4 -58 -21 -75 -42 -27 -95 -10 -121 38 l-20 37 39 40 c35 36 52 45 92 50 7 0
15 -7 18 -16z"/>
<path d="M2716 1399 c-2 -8 -9 -50 -16 -94 -6 -44 -22 -111 -35 -150 -20 -57
-34 -79 -78 -120 -29 -27 -66 -57 -83 -65 -16 -8 -66 -38 -112 -67 -188 -120
-255 -138 -477 -131 -116 4 -161 11 -265 38 -113 30 -148 45 -260 113 -119 72
-316 254 -381 353 -40 60 -59 72 -59 37 0 -25 104 -155 182 -228 98 -90 167
-143 277 -210 81 -49 111 -61 247 -96 142 -36 165 -39 289 -39 202 0 282 21
415 109 30 20 66 42 80 49 94 45 190 120 223 173 45 74 94 306 69 331 -9 9
-12 8 -16 -3z"/>
</g>
</svg>
